<svg width="960" height="700" viewBox="0 0 960 700" fill="none" xmlns="http://www.w3.org/2000/svg" role="img" aria-labelledby="title desc">
  <title id="title">Современный сервисный бокс</title>
  <desc id="desc">Стилизованная иллюстрация автомобиля на диагностике в светлом сервисном боксе.</desc>
  <rect width="960" height="700" rx="42" fill="#111827"/>
  <circle cx="810" cy="84" r="120" fill="#0072CE" opacity=".28"/>
  <circle cx="172" cy="612" r="160" fill="#FF8A1F" opacity=".18"/>
  <rect x="84" y="90" width="792" height="428" rx="34" fill="#F5F6F8"/>
  <rect x="128" y="132" width="268" height="42" rx="21" fill="#DCEBFA"/>
  <rect x="128" y="194" width="704" height="232" rx="24" fill="white"/>
  <rect x="162" y="230" width="194" height="22" rx="11" fill="#111827"/>
  <rect x="162" y="270" width="266" height="16" rx="8" fill="#94A3B8"/>
  <rect x="162" y="306" width="222" height="16" rx="8" fill="#CBD5E1"/>
  <rect x="590" y="234" width="172" height="118" rx="24" fill="#111827"/>
  <path d="M620 310c24-48 72-48 96 0" stroke="#28C76F" stroke-width="12" stroke-linecap="round"/>
  <circle cx="668" cy="302" r="10" fill="#28C76F"/>
  <rect x="118" y="470" width="724" height="76" rx="38" fill="#111827"/>
  <path d="M206 460h432c54 0 92 28 111 68H148c14-43 30-68 58-68Z" fill="#0072CE"/>
  <path d="M268 402h264c54 0 92 26 118 74H180c22-46 45-74 88-74Z" fill="#1E293B"/>
  <path d="M304 424h88l-22 44H252c13-28 28-44 52-44Z" fill="#BAE6FD"/>
  <path d="M424 424h118c30 0 53 14 72 44H402l22-44Z" fill="#BAE6FD"/>
  <circle cx="266" cy="530" r="54" fill="#0F172A"/>
  <circle cx="266" cy="530" r="24" fill="#94A3B8"/>
  <circle cx="650" cy="530" r="54" fill="#0F172A"/>
  <circle cx="650" cy="530" r="24" fill="#94A3B8"/>
  <rect x="676" y="132" width="156" height="42" rx="21" fill="#FF8A1F"/>
  <text x="704" y="159" fill="white" font-family="Arial, sans-serif" font-size="18" font-weight="700">BMW / MINI</text>
  <rect x="90" y="576" width="186" height="54" rx="27" fill="white" opacity=".95"/>
  <text x="124" y="610" fill="#111827" font-family="Arial, sans-serif" font-size="18" font-weight="700">Diagnostics</text>
  <rect x="318" y="576" width="148" height="54" rx="27" fill="white" opacity=".95"/>
  <text x="354" y="610" fill="#111827" font-family="Arial, sans-serif" font-size="18" font-weight="700">B58</text>
  <rect x="508" y="576" width="186" height="54" rx="27" fill="white" opacity=".95"/>
  <text x="548" y="610" fill="#111827" font-family="Arial, sans-serif" font-size="18" font-weight="700">Service</text>
</svg>
